<?xml version="1.0" standalone="no"?>
<!DOCTYPE svg PUBLIC "-//W3C//DTD SVG 20010904//EN"
 "http://www.w3.org/TR/2001/REC-SVG-20010904/DTD/svg10.dtd">
<svg version="1.0" xmlns="http://www.w3.org/2000/svg"
 width="1536.000000pt" height="1024.000000pt" viewBox="0 0 1536.000000 1024.000000"
 preserveAspectRatio="xMidYMid meet">

<g transform="translate(0.000000,1024.000000) scale(0.100000,-0.100000)"
fill="#000000" stroke="none">
<path d="M0 5120 l0 -5120 7680 0 7680 0 0 5120 0 5120 -7680 0 -7680 0 0
-5120z m6092 2013 c105 -114 189 -280 222 -440 l11 -53 95 45 c52 25 100 45
107 45 12 0 42 -70 63 -148 16 -61 13 -216 -5 -287 -40 -150 -100 -239 -288
-420 -82 -80 -162 -167 -185 -203 -54 -84 -100 -197 -118 -290 -16 -82 -20
-351 -8 -499 4 -55 3 -83 -4 -83 -21 0 -112 93 -141 143 -100 177 -100 430 0
630 65 130 123 202 319 397 165 164 202 206 233 266 53 103 82 244 59 282 -7
10 -43 -6 -149 -63 -77 -41 -144 -75 -150 -75 -7 0 -8 12 -2 38 14 62 10 230
-7 301 -17 69 -78 200 -110 238 l-19 22 -111 -92 c-61 -51 -182 -150 -269
-221 l-158 -129 -74 -13 c-157 -27 -376 -116 -531 -217 -65 -42 -154 -113
-219 -174 -25 -23 -57 -36 -160 -63 -70 -18 -173 -45 -228 -61 -383 -106 -472
-132 -483 -138 -21 -12 56 -101 151 -177 85 -68 235 -148 298 -159 65 -12 67
-18 14 -77 -188 -210 -478 -368 -673 -368 -40 0 -71 6 -87 16 -23 15 -22 16
93 74 129 65 217 128 305 218 l58 59 -67 39 c-86 50 -210 166 -252 237 -40 67
-94 195 -90 215 2 9 53 28 143 53 411 115 593 165 718 198 l138 37 80 69 c206
179 441 297 702 354 l97 21 241 201 c263 219 365 299 384 299 7 0 32 -21 57
-47z m1836 -1237 c38 -20 70 -58 142 -166 35 -52 76 -111 92 -131 15 -20 28
-40 28 -43 0 -3 -133 -6 -296 -6 l-296 0 -96 85 -97 85 -408 0 c-261 0 -415
-4 -428 -10 -49 -27 -49 -21 -49 -745 0 -737 -1 -728 56 -754 18 -8 217 -11
702 -11 744 0 704 -3 737 60 13 25 15 114 15 605 l0 576 83 -3 82 -3 0 -620 0
-620 -29 -52 c-30 -54 -87 -102 -145 -121 -24 -9 -232 -12 -741 -12 -812 0
-776 -3 -865 83 -89 87 -86 50 -83 883 l3 719 28 57 c30 61 88 116 148 142 50
22 1376 23 1417 2z m2342 -30 c112 -41 200 -133 235 -246 21 -70 30 -238 17
-310 -28 -150 -95 -246 -210 -302 -66 -32 -70 -33 -202 -33 -125 0 -139 2
-192 27 -164 77 -237 229 -225 468 12 228 101 352 289 405 67 19 225 14 288
-9z m-1387 -83 c3 -54 5 -213 3 -353 -2 -294 -8 -322 -81 -389 -62 -57 -130
-75 -259 -68 -56 2 -109 8 -118 12 -16 6 -18 21 -18 107 0 99 0 100 23 94 59
-17 125 -26 149 -20 57 12 58 18 58 376 l0 327 53 4 c28 2 82 4 118 5 l66 2 6
-97z m662 63 c44 -15 81 -29 83 -31 2 -2 -55 -150 -64 -163 -1 -1 -35 6 -75
18 -133 36 -258 22 -272 -31 -13 -50 19 -72 162 -113 215 -62 282 -125 283
-270 0 -78 -10 -114 -48 -164 -90 -117 -329 -153 -554 -83 -110 34 -109 34
-68 130 20 45 37 82 39 83 2 0 42 -12 89 -27 154 -51 289 -37 306 30 12 48
-17 71 -128 106 -57 17 -126 40 -154 50 -106 41 -164 119 -164 220 0 124 65
213 187 256 60 21 81 23 183 20 91 -4 132 -10 195 -31z m1298 0 c12 -17 83
-127 159 -246 75 -118 143 -224 152 -235 14 -18 15 3 16 241 l0 261 83 6 c45
4 94 7 110 7 l27 0 0 -450 0 -450 -114 0 -114 0 -103 163 c-56 89 -132 209
-168 266 l-66 105 -3 -267 -2 -267 -110 0 -110 0 0 444 0 445 28 4 c15 3 64 4
110 4 81 -1 84 -2 105 -31z m-3374 -465 c6 -10 9 -20 6 -22 -2 -2 -40 -115
-84 -251 -44 -137 -85 -257 -91 -268 -8 -15 -21 -20 -53 -20 -24 0 -51 6 -61
13 -18 13 -14 28 73 290 l93 277 53 0 c43 0 56 -4 64 -19z m-1821 -173 c38
-390 205 -770 442 -1006 l85 -85 -53 7 c-135 17 -342 116 -456 218 l-59 53 7
-45 c4 -24 17 -75 30 -112 l22 -68 -20 0 c-27 0 -67 27 -129 87 -93 90 -150
198 -182 347 -15 65 -17 106 -11 230 6 154 13 216 25 216 3 0 30 -37 58 -83
29 -45 69 -100 88 -122 36 -40 36 -40 28 -10 -4 17 -8 86 -7 155 0 103 4 134
22 179 22 57 82 161 92 161 4 0 12 -55 18 -122z m1480 90 c11 -13 23 -35 27
-49 6 -24 0 -30 -89 -83 -53 -31 -96 -59 -96 -61 0 -2 39 -27 86 -55 47 -29
88 -59 91 -67 11 -27 -11 -76 -38 -85 -22 -7 -41 1 -127 54 -55 35 -121 75
-146 90 -40 24 -46 32 -46 62 0 33 5 37 143 124 78 50 149 91 158 91 8 1 25
-9 37 -21z m481 0 c20 -12 87 -53 149 -91 110 -68 112 -70 112 -106 0 -36 -1
-36 -151 -125 -158 -93 -185 -100 -209 -55 -26 47 -10 70 82 124 48 27 90 53
93 57 4 3 -36 32 -89 63 -53 31 -96 63 -96 71 0 21 27 71 42 77 22 9 30 8 67
-15z m-3489 -296 c0 -5 -35 -62 -78 -128 -169 -258 -381 -448 -649 -583 -140
-70 -263 -112 -353 -118 l-75 -5 75 53 c141 100 365 276 463 363 111 100 217
231 273 339 36 71 40 75 69 71 16 -3 68 0 115 4 117 13 160 13 160 4z m3760
-387 l0 -55 -599 0 -599 0 -4 56 c-1 31 -2 56 -1 57 1 1 272 1 602 -1 l601 -2
0 -55z m-310 -212 c0 -21 -3 -49 -7 -61 l-6 -24 -401 2 c-221 2 -420 5 -443 8
l-43 5 0 53 0 54 450 0 450 0 0 -37z"/>
<path d="M10035 5686 c-77 -35 -100 -93 -100 -261 0 -119 2 -134 25 -180 32
-64 73 -88 150 -88 133 0 187 95 178 311 -4 96 -8 115 -32 155 -15 26 -40 54
-56 62 -36 18 -124 19 -165 1z"/>
</g>
</svg>
