<svg xmlns="http://www.w3.org/2000/svg" viewBox="0 0 310 60" fill="none">
  <g transform="matrix(0.01667,0,0,-0.01667,-26.67,121.6)" fill="#3b82f6">
    <path d="M6092 7133 c105 -114 189 -280 222 -440 l11 -53 95 45 c52 25 100 45 107 45 12 0 42 -70 63 -148 16 -61 13 -216 -5 -287 -40 -150 -100 -239 -288 -420 -82 -80 -162 -167 -185 -203 -54 -84 -100 -197 -118 -290 -16 -82 -20 -351 -8 -499 4 -55 3 -83 -4 -83 -21 0 -112 93 -141 143 -100 177 -100 430 0 630 65 130 123 202 319 397 165 164 202 206 233 266 53 103 82 244 59 282 -7 10 -43 -6 -149 -63 -77 -41 -144 -75 -150 -75 -7 0 -8 12 -2 38 14 62 10 230 -7 301 -17 69 -78 200 -110 238 l-19 22 -111 -92 c-61 -51 -182 -150 -269 -221 l-158 -129 -74 -13 c-157 -27 -376 -116 -531 -217 -65 -42 -154 -113 -219 -174 -25 -23 -57 -36 -160 -63 -70 -18 -173 -45 -228 -61 -383 -106 -472 -132 -483 -138 -21 -12 56 -101 151 -177 85 -68 235 -148 298 -159 65 -12 67 -18 14 -77 -188 -210 -478 -368 -673 -368 -40 0 -71 6 -87 16 -23 15 -22 16 93 74 129 65 217 128 305 218 l58 59 -67 39 c-86 50 -210 166 -252 237 -40 67 -94 195 -90 215 2 9 53 28 143 53 411 115 593 165 718 198 l138 37 80 69 c206 179 441 297 702 354 l97 21 241 201 c263 219 365 299 384 299 7 0 32 -21 57 -47z"/>
  </g>
  <text x="94" y="44" font-family="'Arial Black',Arial,sans-serif" font-size="34" font-weight="900" fill="#f1f5f9" letter-spacing="-0.5">JSON</text>
  <text x="196" y="44" font-family="'Arial Black',Arial,sans-serif" font-size="34" font-weight="900" fill="#3b82f6" letter-spacing="-0.5">HUNT</text>
</svg>
